<?xml version="1.0" encoding="UTF-8"?>
<svg id="Layer_2" data-name="Layer 2" xmlns="http://www.w3.org/2000/svg" xmlns:xlink="http://www.w3.org/1999/xlink" viewBox="0 0 247.46 326.47">
  <defs>
    <style>
      .cls-1 {
        fill: none;
        stroke: url(#White_Black);
        stroke-miterlimit: 10;
        stroke-width: 11px;
      }

      .cls-2 {
        fill: url(#White_Black-3);
      }

      .cls-3 {
        fill: url(#White_Black-7);
      }

      .cls-4 {
        fill: url(#White_Black-6);
      }

      .cls-5 {
        fill: url(#White_Black-2);
      }

      .cls-6 {
        fill: url(#White_Black-5);
      }

      .cls-7 {
        fill: url(#White_Black-4);
      }
    </style>
    <linearGradient id="White_Black" data-name="White, Black" x1="0" y1="225.57" x2="247.46" y2="225.57" gradientUnits="userSpaceOnUse">
      <stop offset="0" stop-color="#fff"/>
      <stop offset="1" stop-color="#231f20"/>
    </linearGradient>
    <linearGradient id="White_Black-2" data-name="White, Black" x1="100.88" y1="68.43" x2="27.72" y2="68.43" xlink:href="#White_Black"/>
    <linearGradient id="White_Black-3" data-name="White, Black" x1="154.33" y1="83.03" x2="93.46" y2="83.03" xlink:href="#White_Black"/>
    <linearGradient id="White_Black-4" data-name="White, Black" x1="220.55" y1="68.77" x2="147.23" y2="68.77" xlink:href="#White_Black"/>
    <linearGradient id="White_Black-5" data-name="White, Black" x1="92.11" y1="203.67" x2="70.15" y2="203.67" xlink:href="#White_Black"/>
    <linearGradient id="White_Black-6" data-name="White, Black" x1="134.88" y1="203.67" x2="112.91" y2="203.67" xlink:href="#White_Black"/>
    <linearGradient id="White_Black-7" data-name="White, Black" x1="177.64" y1="203.67" x2="155.68" y2="203.67" xlink:href="#White_Black"/>
  </defs>
  <g id="Layer_1-2" data-name="Layer 1">
    <path class="cls-1" d="m96.82,316.94v-38.38h-17.13c-40.91,0-74.19-33.28-74.19-74.19,0-19.82,7.72-38.46,21.73-52.47,14.01-14.01,32.64-21.73,52.46-21.73h88.08c40.91,0,74.19,33.29,74.19,74.2,0,19.82-7.72,38.45-21.73,52.46-14.01,14.01-32.64,21.73-52.46,21.73h-4.49l-66.46,38.38Zm-17.13-175.77c-16.88,0-32.75,6.57-44.68,18.51-11.94,11.94-18.51,27.81-18.51,44.69,0,34.84,28.35,63.19,63.19,63.19h28.13v30.32l52.52-30.32h7.43c16.88,0,32.74-6.57,44.68-18.51,11.94-11.94,18.51-27.8,18.51-44.68,0-34.85-28.35-63.2-63.19-63.2h-88.08Z"/>
    <path class="cls-5" d="m100.88,34.44c0,.37-1.2-.64-2.66-2.23-1.46-1.59-3.64-3.22-4.85-3.61-2-.64-2.3-.57-3.53.85-2.61,3.01-7.97,21.64-16.67,57.9-3.98,16.57-6.18,26.58-7.06,32.9-14.01,2.23-27.14,7.9-38.39,16.61,9.23-20.07,17.12-37.2,18.76-40.76,8.68-18.76,30.11-65.34,36.39-79.07C91.58-2.03,90.77-.56,91.96.63c.73.73,1.03,2.84,1.24,8.67.31,8.88.79,10.8,3.8,15.52,1.97,3.08,3.88,7.81,3.88,9.62Z"/>
    <path class="cls-2" d="m154.33,115.48c0,1.51-.01,2.7-.05,3.7h-7.8c.23-1.07.31-2.26.31-3.7,0-4.84-1.45-8.04-5.15-11.38-5.66-5.11-12.68-7.72-19.47-7.23-4.96.35-8.43,1.82-13.65,5.77-4.73,3.58-7.18,6.98-8.61,11.94-1.28,4.46-1.25,4.42-2.5,3.38-1.63-1.35-3.31-5.2-3.77-8.61-.39-2.93-.26-3.38,1.51-5.62,2.66-3.35,3.23-5.14,3.23-10.12,0-3.89.3-4.9,3.28-11.04l3.28-6.77-.19-10.13c-.18-9.38-.09-10.32,1.18-12.82,1.68-3.34,3.74-6.31,4.11-5.94.15.15-.04,2.11-.43,4.35-.59,3.35-.54,4.74.26,7.85,1.52,5.94,4.65,13.56,6.31,15.35,1.49,1.61,1.66,1.63,9.92,1.63,10.28,0,15.55-1.31,18.29-4.54l1.71-2.02-.46,1.87c-.54,2.2-2.16,4.07-5.3,6.11-8.81,5.73-11.21,7.51-11.94,8.87-1.21,2.26-.21,3.1,6.04,5.09,8.72,2.77,15.09,7.8,18.45,14.55,1.23,2.47,1.44,3.86,1.44,9.46Z"/>
    <path class="cls-7" d="m220.55,137.55c-11-8.71-24.18-14.76-38.59-17.19-1.2-7.88-4.53-22.99-9.2-41.77-7.93-31.92-12.26-46.5-14.58-49.1-1.24-1.38-1.54-1.45-3.85-.81-1.8.5-3.08,1.47-4.58,3.47-1.15,1.53-2.23,2.64-2.39,2.48-.67-.68,1.32-5.95,3.98-10.53l2.85-4.9.61-8.91c.57-8.31,1.26-11.23,2.39-10.03.25.27,2.71,5.42,5.45,11.43,2.74,6.02,10.76,23.47,17.81,38.77,10.69,23.18,26.65,57.85,40.1,87.09Z"/>
    <circle class="cls-6" cx="81.13" cy="203.67" r="10.98"/>
    <circle class="cls-4" cx="123.89" cy="203.67" r="10.98"/>
    <circle class="cls-3" cx="166.66" cy="203.67" r="10.98"/>
  </g>
</svg>